<svg width="469" height="131" viewBox="0 0 469 131" fill="none" xmlns="http://www.w3.org/2000/svg">
<g clip-path="url(#clip0_3441_16)">
<path d="M56.6 0L0 32.7V98.1L56.6 130.8L113.2 98.1V32.7L56.6 0ZM103 92.1L56.7 118.9L10.3 92.1V44.6L24.9 53V83.7L56.6 102L85.7 85.2L80.6 76.3L56.6 90.2L35.2 77.8V53L56.6 40.6L80.6 54.5L85.7 45.6L56.6 28.8L30 44.1L15.4 35.7L56.6 11.9L103 38.6V92.1Z" fill="#007BFF"/>
<path fill-rule="evenodd" clip-rule="evenodd" d="M420.7 33.5H465.4V43.1L451 59.4L452 59.6C452.5 59.7 453.3 59.9 453.7 60C454.1 60.1 454.8 60.3 455.2 60.4C455.6 60.5 456.4 60.8 456.9 61C457.4 61.2 458.2 61.6 458.8 61.9C459.3 62.2 460.2 62.7 460.6 62.9C461 63.2 461.7 63.7 462 63.9C462.3 64.1 462.9 64.7 463.3 65.1C463.7 65.5 464.2 66.1 464.5 66.4C464.8 66.8 465.3 67.4 465.5 67.8C465.8 68.2 466.2 69 466.5 69.6C466.8 70.2 467.2 71.1 467.3 71.6C467.5 72.1 467.7 72.9 467.8 73.4C467.9 73.8 468 74.6 468.1 75.1C468.2 75.6 468.2 76.5 468.3 77.1C468.3 77.8 468.3 78.7 468.3 79.3C468.3 79.9 468.2 80.7 468.1 81.2C468 81.7 467.9 82.4 467.8 82.7C467.7 83.1 467.5 83.7 467.4 84.1C467.3 84.5 467.1 85.1 466.9 85.4C466.8 85.7 466.6 86.2 466.4 86.5C466.2 86.8 466 87.3 465.8 87.7C465.6 88 465.3 88.6 465 88.9C464.8 89.2 464.4 89.7 464.2 90C464 90.3 463.5 90.8 463.2 91.1C462.9 91.4 462.3 92 461.9 92.4C461.5 92.8 460.8 93.3 460.5 93.5C460.1 93.8 459.5 94.2 459.1 94.5C458.7 94.8 457.8 95.2 457.3 95.5C456.7 95.8 455.7 96.2 455.1 96.5C454.5 96.7 453.7 97 453.3 97.1C452.9 97.2 452.2 97.4 451.7 97.5C451.2 97.6 450.4 97.8 449.9 97.9C449.4 98 448.3 98.2 447.6 98.3C446.8 98.4 445.5 98.5 444.7 98.6C443.8 98.7 442.4 98.7 441 98.6C439.8 98.6 438.2 98.5 437.5 98.4C436.8 98.3 435.6 98.2 434.8 98.1C434 98 432.9 97.8 432.3 97.7C431.7 97.6 430.7 97.4 430.2 97.2C429.6 97.1 428.8 96.9 428.4 96.7C428 96.6 427.2 96.3 426.6 96.1C426 95.9 424.9 95.5 424.3 95.2C423.6 94.9 422.5 94.4 421.8 94.1C421.1 93.8 420.2 93.2 419.6 92.9C419.1 92.6 418.4 92.2 418.2 92C417.9 91.8 417.7 91.6 417.7 91.6C417.7 91.6 419 89.1 420.5 86C422.1 82.9 423.4 80.4 423.4 80.4C423.4 80.4 423.7 80.5 423.9 80.7C424.2 80.9 424.7 81.2 425.1 81.5C425.5 81.8 426.2 82.2 426.7 82.4C427.1 82.6 427.9 83 428.3 83.2C428.7 83.4 429.5 83.7 429.9 83.9C430.4 84.1 431.2 84.4 431.7 84.5C432.2 84.7 433.1 84.9 433.7 85.1C434.3 85.3 435.2 85.5 435.8 85.6C436.3 85.7 437.2 85.8 437.6 85.9C438 86 438.9 86 439.4 86.1C440 86.1 441 86.2 441.7 86.2C442.4 86.2 443.5 86.2 444 86.1C444.5 86 445.3 85.9 445.6 85.9C445.9 85.8 446.5 85.7 446.9 85.6C447.3 85.5 447.9 85.3 448.3 85.1C448.7 84.9 449.3 84.7 449.7 84.5C450 84.3 450.5 84 450.8 83.8C451.1 83.6 451.5 83.3 451.6 83.1C451.8 82.9 452.1 82.5 452.3 82.3C452.5 82 452.7 81.6 452.9 81.4C453 81.1 453.2 80.7 453.3 80.5C453.4 80.3 453.5 79.8 453.5 79.5C453.6 79.2 453.6 78.6 453.6 78.1C453.6 77.6 453.6 77 453.5 76.6C453.4 76.3 453.3 75.8 453.2 75.5C453.1 75.3 452.9 74.9 452.8 74.6C452.7 74.3 452.4 73.9 452.1 73.6C451.9 73.3 451.4 72.9 451.1 72.6C450.8 72.4 450.2 72 449.8 71.8C449.4 71.6 448.8 71.3 448.4 71.2C448 71.1 447.3 70.9 446.8 70.8C446.3 70.7 445.6 70.6 445.1 70.5C444.6 70.4 443.5 70.4 442.7 70.3C441.8 70.3 439.7 70.2 434.8 70.2V60.4L447.9 45.6H420.8V33.5H420.7ZM298.5 32.4C299.2 32.4 300.4 32.4 301.1 32.5C301.8 32.6 302.8 32.6 303.4 32.7C303.9 32.8 304.8 32.9 305.4 33C306 33.1 306.9 33.3 307.4 33.4C307.9 33.5 308.7 33.7 309.1 33.8C309.5 33.9 310.2 34.1 310.7 34.3C311.1 34.4 311.9 34.7 312.5 34.9C313.1 35.1 314.1 35.5 314.7 35.8C315.4 36.1 316.3 36.6 316.7 36.8C317.2 37.1 317.9 37.5 318.4 37.8C318.9 38.1 319.6 38.6 320.1 38.9C320.6 39.2 321.3 39.8 321.8 40.2C322.3 40.6 323.3 41.5 324 42.3C324.7 43 325.6 43.9 325.9 44.3C326.2 44.6 326.7 45.3 327.1 45.8C327.4 46.3 327.9 46.9 328 47.1C328.2 47.4 328.6 48 328.9 48.5C329.2 49 329.7 50 330.1 50.7C330.5 51.4 330.9 52.4 331.1 52.9C331.3 53.4 331.6 54.2 331.8 54.7C332 55.2 332.2 56.1 332.4 56.7C332.6 57.3 332.7 58.1 332.8 58.4C332.9 58.8 333 59.5 333.1 60C333.2 60.5 333.3 61.2 333.3 61.6C333.3 61.9 333.4 62.9 333.5 63.7C333.5 64.5 333.6 65.7 333.5 66.5C333.5 67.3 333.4 68.2 333.4 68.6C333.4 69 333.3 69.8 333.2 70.4C333.1 71 333 71.9 332.8 72.5C332.7 73.1 332.5 73.9 332.4 74.3C332.3 74.7 332 75.5 331.9 76.1C331.7 76.6 331.4 77.5 331.2 78C331 78.5 330.6 79.4 330.3 79.9C330 80.5 329.6 81.3 329.3 81.7C329.1 82.1 328.6 82.9 328.3 83.3C328 83.7 327.4 84.6 327.1 85.1C326.7 85.6 326.1 86.4 325.7 86.8C325.3 87.2 324.6 88 324.2 88.5C323.7 89 323 89.7 322.5 90.1C322 90.5 321.3 91.1 320.9 91.4C320.5 91.7 319.7 92.3 319.2 92.6C318.7 92.9 317.9 93.5 317.3 93.8C316.8 94.1 315.9 94.6 315.3 94.9C314.7 95.2 313.8 95.6 313.3 95.8C312.8 96 312 96.3 311.5 96.5C311.1 96.7 310.3 96.9 309.8 97C309.3 97.1 308.6 97.3 308.1 97.5C307.6 97.6 306.8 97.8 306.2 97.9C305.7 98 304.7 98.1 304.2 98.2C303.7 98.3 302.5 98.4 301.8 98.4C301.1 98.5 299.7 98.5 298.7 98.5C297.7 98.5 296.3 98.5 295.6 98.4C294.8 98.3 293.7 98.2 293.2 98.2C292.6 98.1 291.7 98 291.2 97.9C290.7 97.8 289.8 97.6 289.3 97.5C288.8 97.4 288 97.2 287.6 97C287.1 96.9 286.3 96.6 285.8 96.4C285.3 96.2 284.4 95.9 283.9 95.7C283.3 95.5 282.4 95 281.8 94.7C281.2 94.4 280.3 93.9 279.8 93.6C279.3 93.3 278.6 92.9 278.2 92.6C277.8 92.3 277 91.8 276.5 91.4C276 91 275.2 90.4 274.7 89.9C274.2 89.5 273.4 88.7 272.9 88.1C272.4 87.6 271.7 86.8 271.4 86.4C271.1 86 270.6 85.4 270.3 85C270 84.6 269.5 83.8 269.1 83.3C268.8 82.8 268.4 82.1 268.2 81.8C268 81.5 267.7 80.8 267.4 80.3C267.1 79.8 266.8 79.1 266.7 78.7C266.6 78.4 266.3 77.7 266.1 77.1C265.9 76.6 265.6 75.8 265.5 75.3C265.4 74.8 265.1 74 265 73.4C264.9 72.8 264.7 71.9 264.6 71.4C264.5 70.8 264.4 69.9 264.3 69.3C264.2 68.7 264.2 67.6 264.1 66.8C264.1 66 264.1 64.7 264.1 63.8C264.1 63 264.2 61.8 264.3 61.1C264.4 60.5 264.5 59.5 264.6 58.9C264.7 58.4 264.9 57.4 265.1 56.7C265.3 56.1 265.5 55.1 265.7 54.6C265.9 54.1 266.2 53.2 266.4 52.8C266.6 52.3 267 51.3 267.4 50.6C267.8 49.9 268.3 48.9 268.5 48.5C268.8 48.1 269.2 47.4 269.5 47C269.8 46.6 270.2 46 270.4 45.7C270.6 45.4 271.1 44.8 271.5 44.3C271.9 43.9 272.7 43 273.3 42.4C273.9 41.8 274.8 40.9 275.3 40.5C275.8 40.1 276.6 39.5 277.1 39.1C277.6 38.7 278.5 38.1 279.1 37.7C279.7 37.3 280.8 36.7 281.5 36.3C282.2 35.9 283.3 35.4 283.8 35.2C284.4 35 285.5 34.5 286.3 34.3C287.1 34 288.2 33.7 288.7 33.6C289.2 33.5 290.1 33.3 290.6 33.2C291.1 33.1 292 32.9 292.6 32.8C293.2 32.7 294.3 32.6 295 32.5C295.7 32.4 296.5 32.4 296.8 32.4C296.9 32.4 297.7 32.4 298.5 32.4ZM295.8 45.2C295.5 45.2 294.8 45.4 294.3 45.5C293.8 45.6 293.1 45.8 292.7 45.9C292.3 46 291.7 46.2 291.3 46.4C290.9 46.6 290.2 46.9 289.7 47.1C289.2 47.3 288.4 47.8 288 48C287.6 48.2 287 48.6 286.7 48.8C286.4 49 286 49.3 285.7 49.5C285.5 49.7 284.9 50.2 284.5 50.6C284.1 51 283.5 51.6 283.3 51.9C283.1 52.2 282.7 52.7 282.4 53C282.1 53.3 281.8 53.9 281.5 54.3C281.3 54.7 280.9 55.4 280.6 55.9C280.4 56.4 280 57.2 279.8 57.7C279.6 58.2 279.4 59 279.3 59.4C279.2 59.8 279 60.6 278.9 61.2C278.8 61.7 278.7 62.6 278.6 63C278.6 63.5 278.5 64.5 278.5 65.3C278.5 66.1 278.5 67.2 278.6 67.6C278.6 68.1 278.7 68.7 278.8 69.1C278.9 69.4 279 70 279 70.4C279.1 70.7 279.2 71.4 279.4 71.8C279.5 72.2 279.7 72.8 279.9 73.2C280 73.6 280.4 74.3 280.6 74.9C280.9 75.4 281.3 76.3 281.7 76.8C282 77.3 282.5 78 282.9 78.5C283.2 78.9 283.8 79.6 284.2 80C284.6 80.4 285.2 81 285.5 81.2C285.8 81.5 286.4 81.9 286.7 82.1C287 82.3 287.6 82.7 287.9 82.9C288.2 83.1 288.9 83.5 289.5 83.7C290 83.9 290.8 84.3 291.2 84.4C291.6 84.6 292.2 84.7 292.5 84.8C292.8 84.9 293.3 85 293.6 85.1C293.9 85.2 294.6 85.3 295.1 85.4C295.6 85.5 296.6 85.6 297.3 85.6C298.2 85.7 298.9 85.7 299.8 85.6C300.5 85.6 301.5 85.4 302.1 85.4C302.7 85.4 303.5 85.1 303.8 85.1C304.2 85 304.8 84.8 305.2 84.7C305.6 84.6 306.3 84.3 306.8 84.1C307.2 83.9 307.9 83.6 308.3 83.4C308.7 83.2 309.2 82.9 309.4 82.8C309.6 82.7 310 82.4 310.3 82.2C310.6 82 311.1 81.6 311.5 81.3C311.9 81 312.5 80.4 312.9 80C313.3 79.6 313.8 79.1 314 78.8C314.2 78.5 314.6 78 314.9 77.6C315.2 77.2 315.5 76.6 315.8 76.3C316 75.9 316.4 75.2 316.6 74.7C316.8 74.2 317.2 73.4 317.3 72.9C317.5 72.4 317.7 71.7 317.8 71.4C317.9 71 318 70.5 318.1 70.2C318.2 69.9 318.3 69.4 318.3 69C318.4 68.6 318.4 67.8 318.5 67.2C318.6 66.5 318.6 65.6 318.5 64.9C318.5 64.2 318.4 63.4 318.4 63C318.4 62.6 318.3 61.9 318.2 61.5C318.1 61 318 60.2 317.8 59.7C317.7 59.2 317.4 58.4 317.3 58C317.1 57.6 316.8 56.8 316.6 56.3C316.4 55.8 316 55.1 315.7 54.6C315.4 54.2 315 53.5 314.8 53.2C314.5 52.9 314.1 52.3 313.9 52C313.7 51.7 313.2 51.2 312.8 50.8C312.4 50.4 311.9 49.9 311.5 49.6C311.2 49.3 310.7 48.9 310.4 48.7C310.1 48.5 309.6 48.2 309.2 47.9C308.8 47.7 308.1 47.3 307.7 47.1C307.3 46.9 306.7 46.6 306.4 46.5C306.1 46.4 305.6 46.2 305.2 46.1C304.8 46 304.1 45.8 303.6 45.7C303.1 45.6 302.3 45.4 301.8 45.3C301.3 45.2 300.5 45.1 299.9 45.1C299.4 45.1 298.8 45.1 298.7 45C298.5 45 297.9 45 297.3 45C296.9 45.1 296.2 45.2 295.8 45.2ZM144.3 33.5H160.2C169.7 33.5 176.8 33.5 177.7 33.6C178.6 33.6 179.9 33.7 180.7 33.8C181.5 33.9 182.5 34 183.1 34.1C183.7 34.2 184.5 34.4 185 34.5C185.5 34.6 186.3 34.8 186.8 35C187.3 35.2 188.2 35.4 188.6 35.6C189.1 35.8 189.9 36.1 190.5 36.4C191.1 36.7 191.9 37.1 192.2 37.3C192.6 37.5 193.2 38 193.7 38.3C194.1 38.6 194.8 39.2 195.1 39.5C195.4 39.8 195.9 40.3 196.2 40.7C196.5 41 196.9 41.6 197.2 42C197.5 42.4 197.8 43 198.1 43.5C198.3 43.9 198.6 44.6 198.8 45.1C198.9 45.5 199.1 46.2 199.2 46.5C199.3 46.8 199.4 47.5 199.5 47.9C199.6 48.3 199.6 49 199.7 49.5C199.7 50 199.7 50.8 199.7 51.4C199.7 52 199.6 52.7 199.5 53.1C199.4 53.5 199.3 53.9 199.3 54.2C199.2 54.5 199.1 55 198.9 55.5C198.8 55.9 198.5 56.6 198.4 56.9C198.3 57.2 197.9 57.9 197.7 58.3C197.5 58.7 197 59.4 196.7 59.8C196.4 60.2 195.9 60.8 195.7 61.1C195.4 61.4 194.9 61.9 194.4 62.3C194 62.7 193.3 63.2 193 63.4C192.6 63.6 192.1 64 191.3 64.4L192.1 64.7C192.5 64.9 193.2 65.1 193.4 65.2C193.7 65.3 194.2 65.6 194.6 65.8C195 66 195.5 66.3 195.7 66.4C195.9 66.5 196.4 66.9 196.8 67.1C197.1 67.4 197.7 67.9 198.1 68.2C198.5 68.5 199 69.1 199.3 69.4C199.6 69.7 200.1 70.4 200.3 70.8C200.6 71.2 201 72 201.3 72.5C201.5 73 201.8 73.7 202 74.2C202.2 74.6 202.4 75.4 202.5 75.9C202.6 76.4 202.7 77.1 202.8 77.5C202.9 78 202.9 78.8 202.9 80C202.9 81.1 202.9 82 202.8 82.4C202.7 82.8 202.6 83.5 202.5 83.9C202.4 84.4 202.2 85.2 202 85.7C201.8 86.2 201.5 87 201.3 87.4C201.1 87.8 200.7 88.5 200.5 88.8C200.3 89.1 199.9 89.6 199.7 89.9C199.5 90.2 199 90.7 198.7 91C198.4 91.3 197.8 91.8 197.5 92.1C197.2 92.4 196.6 92.8 196.2 93.1C195.8 93.4 195.1 93.8 194.8 94C194.5 94.2 193.8 94.5 193.4 94.7C193 94.9 192.2 95.2 191.7 95.4C191.2 95.6 190.4 95.8 189.9 96C189.4 96.1 188.6 96.3 188.1 96.5C187.6 96.6 186.7 96.8 186.2 96.9C185.6 97 184.9 97.1 184.5 97.2C184.2 97.2 183.2 97.3 182.4 97.4C181 97.5 180.7 97.5 144.5 97.6V33.5H144.3ZM159 59.6C170.7 59.6 174.5 59.6 175.2 59.5C175.8 59.5 176.6 59.4 177 59.4C177.3 59.4 178 59.2 178.4 59.1C178.9 59 179.5 58.8 179.9 58.7C180.2 58.6 180.8 58.3 181.1 58.2C181.4 58 181.9 57.7 182.2 57.5C182.5 57.3 182.9 56.9 183.1 56.7C183.3 56.5 183.6 56.1 183.7 55.9C183.8 55.7 184 55.3 184.1 55.1C184.2 54.9 184.3 54.5 184.4 54.2C184.5 53.9 184.6 53.5 184.6 53.2C184.6 52.9 184.7 52.4 184.7 52C184.7 51.6 184.7 51 184.6 50.7C184.5 50.4 184.4 50 184.4 49.7C184.3 49.5 184.2 49.1 184.1 48.9C184 48.6 183.7 48.2 183.5 47.9C183.3 47.6 182.9 47.2 182.7 47C182.5 46.8 182.1 46.5 181.9 46.4C181.7 46.3 181.3 46 181 45.9C180.7 45.7 180.1 45.5 179.8 45.4C179.4 45.3 178.9 45.1 178.5 45C178.2 44.9 177.5 44.8 177 44.7C176.5 44.6 175.5 44.6 174.7 44.5C173.9 44.5 170.1 44.4 166.2 44.4H159.1V59.6H159ZM159 86.1C178.2 86 178.6 86 179.6 85.9C180.2 85.8 180.9 85.7 181.2 85.6C181.5 85.5 182 85.4 182.4 85.3C182.7 85.2 183.3 85 183.6 84.9C183.9 84.8 184.4 84.5 184.7 84.3C185 84.1 185.5 83.8 185.7 83.5C186 83.3 186.4 82.8 186.6 82.6C186.8 82.3 187.1 81.9 187.2 81.6C187.3 81.3 187.5 80.9 187.6 80.7C187.7 80.4 187.8 79.9 187.9 79.6C188 79.2 188 78.6 188 78.2C188 77.8 188 77.2 187.9 76.9C187.8 76.6 187.7 76 187.6 75.8C187.5 75.5 187.3 75.1 187.2 74.8C187.1 74.5 186.8 74.1 186.6 73.8C186.4 73.5 186.1 73.2 185.9 73C185.7 72.8 185.3 72.5 185 72.3C184.7 72.1 184.2 71.8 183.9 71.7C183.6 71.6 183.1 71.4 182.8 71.3C182.5 71.2 182 71.1 181.7 71C181.4 70.9 180.8 70.8 180.5 70.7C180.2 70.6 179.6 70.6 179.3 70.5C178.9 70.4 175.8 70.4 168.9 70.4H159.1L159 86.1ZM228.7 33.5V85.2H260.6V97.3H213.9V65.5C213.9 48 213.9 33.7 213.9 33.6C213.9 33.5 215.5 33.5 228.7 33.5ZM344.6 33.5H359.3V63.2L360 62.4C360.4 62 366.8 55.3 387.5 33.5H395.6C400.1 33.5 403.8 33.5 403.8 33.6C403.8 33.6 397.9 40 390.7 47.8C383.5 55.6 377.6 62 377.6 62C377.6 62 382.9 68.7 389.3 76.9C395.8 85.1 402 93 403.2 94.5C404.4 96 405.4 97.3 405.3 97.3C405.3 97.3 401.4 97.4 388.1 97.4L379.2 86.4C374.3 80.4 369.7 74.7 367.8 72.4L359.3 81.3V97.4H344.6V33.5Z" fill="white"/>
</g>
<defs>
<clipPath id="clip0_3441_16">
<rect width="468.2" height="130.8" fill="white"/>
</clipPath>
</defs>
</svg>
